<svg xmlns="http://www.w3.org/2000/svg" width="100" height="100" viewBox="0 0 100 100">
  <defs>
    <style>
      .cls-1 {
        fill: #ffffff00;
      }

      .cls-2 {
        fill-rule: evenodd;
      }
    </style>
  </defs>
  <rect class="cls-1" width="100" height="100"/>
  <path class="cls-2" d="M89.224,50.634c-2.007.033-5.072,0.568-5.227-1.344-0.151-1.864,3.489-1.331,5.227-1.3,0.078-4.927-1.392-8.822-2.437-12.574-1.234.27-4.37,2.567-5.306,0.949a1.557,1.557,0,0,1,.157-1.582,21.183,21.183,0,0,1,4.127-1.819A36.862,36.862,0,0,0,81.4,25.524l-2.712-3.242-2.869,2.887a1.559,1.559,0,0,1-1.1.277,1.378,1.378,0,0,1-.983-1.858c0.316-.759,1.753-1.843,2.358-2.452l0.707-.751-3.223-2.728a39.6,39.6,0,0,0-7.389-4.389l-0.747,1.779c-0.4.94-.937,3.531-2.633,2.531-1.537-.907.586-4.142,0.943-5.338l-3.223-1.068A32.375,32.375,0,0,0,51.26,9.787c0.035,1.815.639,5.72-1.611,5.22-1.5-.334-1.056-3.4-1.022-5.22-4.9-.079-8.768,1.4-12.5,2.452,0.329,1.207,2.506,4.423.943,5.338-1.7.994-2.237-1.585-2.633-2.531l-0.747-1.779A36.554,36.554,0,0,0,26.3,17.656l-3.223,2.728,2.908,2.926c0.437,1.07-.2,2.794-1.69,2.017l-3.1-3.045v0.079A11.429,11.429,0,0,0,19.347,24.5a44.584,44.584,0,0,0-5.227,8.462,21.67,21.67,0,0,1,4.127,1.819,1.558,1.558,0,0,1,.157,1.582c-0.931,1.6-4.077-.656-5.306-0.949l-0.9,2.689a33.64,33.64,0,0,0-1.533,9.886c2-.033,5.078-0.573,5.227,1.344,0.144,1.858-3.486,1.331-5.227,1.3-0.079,4.925,1.426,8.771,2.437,12.535l0.079,0.04,1.729-.712c1.034-.439,3.266-1.728,3.655.2,0.38,1.883-3.479,2.146-4.4,3.005l1.808,3.559,1.218,1.9a1.386,1.386,0,0,1-1.022,1.9c-0.973.2-1.328-.685-1.651-1.186A34.284,34.284,0,0,1,11.88,67,57.944,57.944,0,0,1,9.4,60.282C7.6,54.192,7.5,44.739,9.325,38.573c4.282-14.433,13.8-25.056,27.9-29.538a61.444,61.444,0,0,1,7.664-1.661L48.548,7.1a21.339,21.339,0,0,1,5.306.2l3.3,0.4A49.647,49.647,0,0,1,65.487,10.1c13.662,5.662,22.666,16.238,25.9,32.425,1.8,9.032-.654,19.13-3.655,25.07a45.659,45.659,0,0,1-2.437,4.389c-0.308.473-.652,1.251-1.572,1.068a1.383,1.383,0,0,1-1.022-1.9l1.218-1.9L85.727,65.7c-0.944-.836-4.985-1.175-4.363-3.163,0.618-1.973,4.21.159,5.384,0.672l0.039-.119a13.351,13.351,0,0,0,.865-2.649A33.3,33.3,0,0,0,89.224,50.634ZM25.046,37.743c1.279-.034,3.723,1.355,4.834,1.819L40.766,44.03l3.812,1.582a2.073,2.073,0,0,0,1.3.4c0.505-1.06,4.874-3.4,5.384-.909,0.31,1.508-1.056,1.363-2.044,1.661A2.661,2.661,0,0,0,47.6,50.436a2.574,2.574,0,0,0,4.795-.158c0.337-.831.071-1.7,0.786-2.135,1.759-1.072,2.232,1.3,1.808,2.689A5.323,5.323,0,0,1,47.8,54.153c-1.993-.862-3.188-2.714-3.065-5.615l-16.9-6.959C26.534,41.033,21.655,39.529,25.046,37.743ZM37.858,63.762H56.29c2.6,0,6.14-.393,7.7.712a4.17,4.17,0,0,1,1.494,2.056,27.721,27.721,0,0,1-.079,7.909c-1.115,2.862-3.755,2.531-7.624,2.531H42.81c-3.1,0-6.335.361-7.7-1.384a4.651,4.651,0,0,1-.865-1.819L34.2,71.473c0-1.921-.265-4.464.472-5.694a4.212,4.212,0,0,1,2.2-1.819Zm0.157,2.649a1.627,1.627,0,0,0-1.1.791,38.058,38.058,0,0,0-.079,6.09,1.546,1.546,0,0,0,.511.791c0.712,0.526,4.159.237,5.424,0.237h14.5c1.826,0,5.252.526,5.7-.909a25.433,25.433,0,0,0-.236-6.525c-0.606-.8-4.728-0.475-6.249-0.475H38.015Zm3.734,2.649c1.7-.046,5.076-0.387,4.166,1.819-0.616,1.494-6.581,1.259-4.991-1.226A2.025,2.025,0,0,1,41.749,69.061Zm6.563,0c1.765-.047,5.139-0.345,4.127,1.9-0.641,1.421-6.733,1.118-4.913-1.384A2.211,2.211,0,0,1,48.312,69.061Zm6.563,0c1.786-.049,5.06-0.348,4.127,1.859a1.48,1.48,0,0,1-.747.712,11.422,11.422,0,0,1-3.576,0C53.264,71.059,53.85,69.6,54.875,69.061Z"/>
</svg>
