<svg xmlns="http://www.w3.org/2000/svg" width="100" height="100" viewBox="0 0 100 100">
  <defs>
    <style>
      .cls-1 {
        fill: #ffffff00;
      }

      .cls-2 {
        fill-rule: evenodd;
      }
    </style>
  </defs>
  <rect class="cls-1" width="100" height="100"/>
  <path class="cls-2" d="M43.72,38.562c-1.331,0-2.535.009-3.842,0A8.287,8.287,0,0,1,38.3,41.156a3.544,3.544,0,0,0-.9,1.015,8.827,8.827,0,0,1,1.017,3.383,9.482,9.482,0,0,1-4.294,2.256c-0.454-.752-1.3-1.312-1.808-2.03a2.266,2.266,0,0,0-.452-0.789H31.29c-0.691.51-2.84,0.221-3.729,0.113-0.334.738-1.619,2.974-2.486,3.045-1.185-.851-4.1-0.724-4.068-2.707a10.5,10.5,0,0,0,.678-2.932,8.211,8.211,0,0,1-2.712-3.158,12.354,12.354,0,0,1-3.729.338A13.291,13.291,0,0,1,14,34.84c1.165-.282,1.972-1.265,3.277-1.466a31.042,31.042,0,0,1,.791-4.4,7.659,7.659,0,0,1-2.486-2.707c0.9-.924,1.732-3.417,3.051-3.835A26.323,26.323,0,0,0,21.91,23.9a4.591,4.591,0,0,0,1.13-.789l2.6-1.128a32.636,32.636,0,0,1,.452-3.5,1.469,1.469,0,0,1,.9-0.226c0.594-.44,3.526-0.248,4.181,0a16.392,16.392,0,0,0,.678,2.707,1.218,1.218,0,0,0,.226.9l0.791,0.113c0.527,0.178,1.126.42,1.7,0.677,0.394,0.178.97,0.85,1.356,0.677,1.2-.342,1.908-1.483,3.277-1.692,0.815,1.28,2.758,2.107,3.051,3.835a24.258,24.258,0,0,0-2.26,2.933c0.575,0.582.791,2.058,1.017,2.932v0.9c0.177,0.342.975,0.293,1.356,0.451l2.147,1.015v1.579A27.613,27.613,0,0,0,43.72,38.562Zm-14.8-12.407c-0.446.3-1.706,0.218-2.26,0.451a7.843,7.843,0,0,0-4.181,4.173,13.657,13.657,0,0,0-.339,2.03,4.734,4.734,0,0,0,.226,2.368A6.635,6.635,0,0,0,26.317,39.8a6.23,6.23,0,0,0,3.955.677,7.709,7.709,0,0,0,5.763-4.737,7.454,7.454,0,0,0-.113-4.737A7.029,7.029,0,0,0,28.916,26.156Zm28.251,56.28a62.5,62.5,0,0,1-.678-6.429c-1.4-.53-3.729-1.365-4.633-2.368a7.58,7.58,0,0,0-1.808,1.241c-0.785.5-1.541,0.805-2.373,1.241-0.3.158-1.162,0.9-1.582,0.79a13.052,13.052,0,0,1-2.26-2.369c-0.411-.553-1.031-0.761-1.017-1.466a10.242,10.242,0,0,0,1.017-1.8c0.446-.7,1.11-1.362,1.582-2.03a6.249,6.249,0,0,1,.9-1.241,6.385,6.385,0,0,0-.791-1.466,13.834,13.834,0,0,1-1.243-3.383c-0.923-.3-2.042-0.079-3.051-0.338-1.087-.28-2.32-0.546-3.39-0.79V61.8c-0.464-.649-0.347-3.574-0.339-4.737a8.15,8.15,0,0,0,1.356-.564l1.13-.226a20,20,0,0,1,3.842-1.015A11.952,11.952,0,0,1,45.3,50.179a20.424,20.424,0,0,1-4.294-4.963,3.062,3.062,0,0,0,.565-0.9c0.379-.57,2.048-2.861,2.6-3.045a9.387,9.387,0,0,0,2.147.79,26.951,26.951,0,0,0,3.729,1.8,12.621,12.621,0,0,1,2.825-2.143,8.028,8.028,0,0,0,1.469-.677v-0.9a4.929,4.929,0,0,1-.113-1.917c-0.033-1.112-.014-2.272,0-3.609A12.848,12.848,0,0,1,59.2,33.374c0.629,1.441,1.543,2.842,2.26,4.286l0.565,1.579h2.486a26.275,26.275,0,0,0,2.825.564,3.617,3.617,0,0,1,.791-1.128c0.582-.828,1.1-1.567,1.695-2.368,0.436-.587,1.173-0.946,1.582-1.579a21.768,21.768,0,0,1,3.164,1.579,10.021,10.021,0,0,1,1.243.564v0.677a6.734,6.734,0,0,0-.339,1.8,22.715,22.715,0,0,0-1.13,4.06A6.491,6.491,0,0,1,76.152,45.1l0.9,0.789a3.13,3.13,0,0,0,1.017,1.241c0.868-.655,4.73-1.069,6.215-1.241a26.463,26.463,0,0,1,1.582,3.5,2.135,2.135,0,0,1,.339,1.128,4.759,4.759,0,0,1-1.243,1.015,42.344,42.344,0,0,1-3.955,2.82c0.563,1.608.35,3.586,0.339,5.188a31.621,31.621,0,0,1,4.294,2.368c0.624,0.393,1.321.349,1.356,1.353a7.063,7.063,0,0,0-.452,1.8c-0.136.4-.414,0.958-0.565,1.354a2.974,2.974,0,0,1-.339,1.128H82.593a33.7,33.7,0,0,0-3.5-.451,19.117,19.117,0,0,1-2.147,3.271c-0.351.474-.816,0.444-0.9,1.241,0.8,0.819,1.939,4.465,2.26,5.865a3.617,3.617,0,0,0-1.017.79c-0.72.5-2.436,1.718-3.39,1.8a5.289,5.289,0,0,0-1.469-1.241A21.864,21.864,0,0,1,70.5,76.91a3.6,3.6,0,0,0-1.243-1.241C68.5,76.3,65.772,76.78,64.4,76.8l-0.113.225a6.687,6.687,0,0,0-.452,1.692c-0.314.913-.764,1.973-1.13,2.82A6.057,6.057,0,0,1,62.139,83H60.783C60.624,82.89,57.536,82.477,57.167,82.436Zm4.52-36.2a4.122,4.122,0,0,1-1.017.113,19.475,19.475,0,0,0-2.825.79A12.483,12.483,0,0,0,51.4,53.788a18.162,18.162,0,0,0-.678,2.594,11.493,11.493,0,0,0,.339,4.511,18.515,18.515,0,0,0,.565,2.03,12.435,12.435,0,0,0,4.52,5.188l0.678,0.226A13.815,13.815,0,0,0,60.783,69.8h1.243a2.089,2.089,0,0,0,.9.113,28.367,28.367,0,0,0,3.277-.564A12.535,12.535,0,0,0,73.44,62.7l0.791-2.707a10.474,10.474,0,0,0-.339-4.85c-1.354-4.305-3.809-7.06-8.023-8.459A13.477,13.477,0,0,0,61.687,46.232Z"/>
</svg>
