<svg xmlns="http://www.w3.org/2000/svg" width="100" height="100" viewBox="0 0 100 100">
  <defs>
    <style>
      .cls-1 {
        fill: #ffffff00;
      }

      .cls-2 {
        fill-rule: evenodd;
      }
    </style>
  </defs>
  <rect class="cls-1" width="100" height="100"/>
  <path class="cls-2" d="M72.642,38.318A29.823,29.823,0,0,1,78.026,39.7c3.733,1.13,7.546,1.863,11.229,2.772,1.167,2.01.615,6.674,0.615,9.7V74.971c0,2.319.576,9.123-.923,9.7-0.646.494-5.356-.717-6.614-1.078-6.009-1.725-12.482-2.944-18.459-4.774-2.747-.841-6.12.572-8.768,1.386-3.105.954-6.12,1.218-9.23,2.156s-6.666,1.975-9.845,2.618c-0.934.189-3.488-.961-4.307-1.232-3.256-1.078-6.573-1.74-9.691-2.772-2.548-.843-5.127-1.36-7.537-2.156-1.215-.4-2.432-0.284-3.077-1.232-0.461-.614-0.308-2.017-0.308-3.08V46.634c0-3.35-.4-7.647.308-10.472,2.2-1.051,5.315.558,7.384,1.232,3.831,1.248,7.553,1.831,11.383,3.08,2.63,0.857,4.951,1.894,7.691,1.078,1.378-.41,3.214-0.327,4.307-1.078a0.556,0.556,0,0,0,.154-0.308c-1.539-1.7-1.943-8.226-1.231-10.934,1.746-6.632,4.8-10.1,10.922-12.32a13.813,13.813,0,0,1,5.23-.924c7.892,0.761,12.368,4.088,14.921,10.164,0.628,1.5,1.707,4.224,1.384,6.468C73.28,34.6,72.886,36.582,72.642,38.318ZM55.413,19.376c-0.972.595-2.526,0.484-3.538,0.924a13.466,13.466,0,0,0-6.922,6.93c-3.064,7.337,1.677,15.342,4.769,19.558,0.821,1.12,2.1,1.989,2.923,3.08,0.894,1.181,3.214,3.822,4.615,4.312,1.069-1.608,3.148-2.472,4.307-4,2.489-3.291,5.315-6.26,7.076-10.318l1.231-3.85c2.328-8.73-3.923-14.9-10-16.478Zm0.461,6.468c3.54-.077,5.624.975,6.922,3.08,2.814,4.564-.8,9.1-4.769,10.01-4.314.992-8.6-4.017-7.384-8.162a7.641,7.641,0,0,1,3.384-4.312Zm0.462,3.234c-1.217.92-3.7,2.32-2.154,4.928a7.731,7.731,0,0,0,1.846,1.54c3.712,0.37,4.8-1.73,3.846-5.082C58.739,29.7,58.419,29.066,56.336,29.078ZM14.341,39.55V75.433h0.154v0.154c2.339,0.125,5.435,1.46,7.538,2.156,4,1.324,8.2,1.82,12,3.388V45.248a0.437,0.437,0,0,0,.154-0.154,32.42,32.42,0,0,1-6.307-1.848c-3.115-1.031-6.113-1.437-9.23-2.464A19.759,19.759,0,0,0,14.341,39.55ZM63.566,75.433a29.208,29.208,0,0,1,5.845,1.54c3.081,1.008,6.128,1.209,9.23,2.156a40.979,40.979,0,0,0,8,2V45.094L71.411,41.4c-0.881,3.4-3.616,6.377-5.538,8.932-0.471.626-2.023,1.678-2.307,2.31V75.433ZM37.415,45.094V81.131l22.92-5.7V55.875H60.182c-0.726.762-1.731,1.247-2.461,2-2.318-.035-3.2-1.656-4.461-2.772a44.906,44.906,0,0,1-7.076-7.546c-0.6-.855-1.864-3.735-2.769-4C42.434,44.226,38.781,44.911,37.415,45.094Z"/>
</svg>
